<svg id="visual" viewBox="0 0 1440 1024" width="1440" height="1024" xmlns="http://www.w3.org/2000/svg"
     version="1.1">
    <path d="M685 0L702.2 34.2C719.3 68.3 753.7 136.7 727.7 205C701.7 273.3 615.3 341.7 630.5 409.8C645.7 478 762.3 546 770.7 614.2C779 682.3 679 750.7 679.2 819C679.3 887.3 779.7 955.7 829.8 989.8L880 1024L0 1024L0 989.8C0 955.7 0 887.3 0 819C0 750.7 0 682.3 0 614.2C0 546 0 478 0 409.8C0 341.7 0 273.3 0 205C0 136.7 0 68.3 0 34.2L0 0Z"
          fill="#131267" stroke-linecap="round" stroke-linejoin="miter"></path>
</svg>