<svg id="visual" viewBox="0 0 1400 900" width="1400" height="900" xmlns="http://www.w3.org/2000/svg"
     version="1.1">
    <g stroke-width="1" stroke-linejoin="bevel">
        <path d="M656.2 444L745.8 586L784.8 455Z" fill="#0092ed" stroke="#0092ed"></path>
        <path d="M656.2 444L655.2 581L745.8 586Z" fill="#00a0f6" stroke="#00a0f6"></path>
        <path d="M745.8 586L895.3 488L784.8 455Z" fill="#00aeff" stroke="#00aeff"></path>
        <path d="M765.8 294L638.2 313L656.2 444Z" fill="#007fe0" stroke="#007fe0"></path>
        <path d="M656.2 444L497.7 413L655.2 581Z" fill="#008dea" stroke="#008dea"></path>
        <path d="M765.8 294L656.2 444L784.8 455Z" fill="#0097f0" stroke="#0097f0"></path>
        <path d="M910.3 280L765.8 294L784.8 455Z" fill="#00a9fc" stroke="#00a9fc"></path>
        <path d="M638.2 313L497.7 413L656.2 444Z" fill="#00a9fc" stroke="#00a9fc"></path>
        <path d="M737.8 760L939.3 618L745.8 586Z" fill="#0089e7" stroke="#0089e7"></path>
        <path d="M745.8 586L939.3 618L895.3 488Z" fill="#00a0f6" stroke="#00a0f6"></path>
        <path d="M604.2 754L737.8 760L655.2 581Z" fill="#00a9fc" stroke="#00a9fc"></path>
        <path d="M655.2 581L737.8 760L745.8 586Z" fill="#009cf3" stroke="#009cf3"></path>
        <path d="M487.7 717L604.2 754L655.2 581Z" fill="#00a5f9" stroke="#00a5f9"></path>
        <path d="M497.7 413L450.7 598L655.2 581Z" fill="#0084e3" stroke="#0084e3"></path>
        <path d="M1053.9 312L910.3 280L895.3 488Z" fill="#00aeff" stroke="#00aeff"></path>
        <path d="M895.3 488L910.3 280L784.8 455Z" fill="#009cf3" stroke="#009cf3"></path>
        <path d="M450.7 598L487.7 717L655.2 581Z" fill="#00a0f6" stroke="#00a0f6"></path>
        <path d="M584.2 121L471.7 275L638.2 313Z" fill="#008dea" stroke="#008dea"></path>
        <path d="M638.2 313L471.7 275L497.7 413Z" fill="#0092ed" stroke="#0092ed"></path>
        <path d="M497.7 413L345.1 484L450.7 598Z" fill="#00a0f6" stroke="#00a0f6"></path>
        <path d="M788.8 135L638.2 313L765.8 294Z" fill="#008dea" stroke="#008dea"></path>
        <path d="M966.3 778L1057.9 570L939.3 618Z" fill="#0089e7" stroke="#0089e7"></path>
        <path d="M939.3 618L1057.9 570L895.3 488Z" fill="#00aeff" stroke="#00aeff"></path>
        <path d="M904.3 900L966.3 778L737.8 760Z" fill="#0092ed" stroke="#0092ed"></path>
        <path d="M737.8 760L966.3 778L939.3 618Z" fill="#0084e3" stroke="#0084e3"></path>
        <path d="M321.1 281L345.1 484L497.7 413Z" fill="#0092ed" stroke="#0092ed"></path>
        <path d="M450.7 598L344.1 776L487.7 717Z" fill="#009cf3" stroke="#009cf3"></path>
        <path d="M910.3 280L788.8 135L765.8 294Z" fill="#0097f0" stroke="#0097f0"></path>
        <path d="M345.1 484L340.1 569L450.7 598Z" fill="#007fe0" stroke="#007fe0"></path>
        <path d="M1112.9 475L1053.9 312L895.3 488Z" fill="#008dea" stroke="#008dea"></path>
        <path d="M910.3 280L956.3 120L788.8 135Z" fill="#0092ed" stroke="#0092ed"></path>
        <path d="M618.2 900L737.8 760L604.2 754Z" fill="#0089e7" stroke="#0089e7"></path>
        <path d="M618.2 900L746.8 900L737.8 760Z" fill="#00a5f9" stroke="#00a5f9"></path>
        <path d="M1236.4 467L1112.9 475L1254.4 592Z" fill="#009cf3" stroke="#009cf3"></path>
        <path d="M1057.9 570L1112.9 475L895.3 488Z" fill="#0089e7" stroke="#0089e7"></path>
        <path d="M475.7 900L604.2 754L487.7 717Z" fill="#009cf3" stroke="#009cf3"></path>
        <path d="M475.7 900L618.2 900L604.2 754Z" fill="#009cf3" stroke="#009cf3"></path>
        <path d="M788.8 135L584.2 121L638.2 313Z" fill="#00a9fc" stroke="#00a9fc"></path>
        <path d="M746.8 900L904.3 900L737.8 760Z" fill="#0097f0" stroke="#0097f0"></path>
        <path d="M471.7 275L321.1 281L497.7 413Z" fill="#00a5f9" stroke="#00a5f9"></path>
        <path d="M345.1 484L164.6 611L340.1 569Z" fill="#0084e3" stroke="#0084e3"></path>
        <path d="M430.7 127L321.1 281L471.7 275Z" fill="#0089e7" stroke="#0089e7"></path>
        <path d="M1053.9 312L956.3 120L910.3 280Z" fill="#00aeff" stroke="#00aeff"></path>
        <path d="M788.8 135L596.2 0L584.2 121Z" fill="#009cf3" stroke="#009cf3"></path>
        <path d="M325.1 900L344.1 776L151.6 731Z" fill="#0097f0" stroke="#0097f0"></path>
        <path d="M340.1 569L344.1 776L450.7 598Z" fill="#009cf3" stroke="#009cf3"></path>
        <path d="M344.1 776L475.7 900L487.7 717Z" fill="#008dea" stroke="#008dea"></path>
        <path d="M584.2 121L430.7 127L471.7 275Z" fill="#0089e7" stroke="#0089e7"></path>
        <path d="M1098.9 900L1104.9 780L966.3 778Z" fill="#00a9fc" stroke="#00a9fc"></path>
        <path d="M966.3 778L1104.9 780L1057.9 570Z" fill="#00aeff" stroke="#00aeff"></path>
        <path d="M956.3 120L816.8 0L788.8 135Z" fill="#0097f0" stroke="#0097f0"></path>
        <path d="M584.2 121L497.7 0L430.7 127Z" fill="#008dea" stroke="#008dea"></path>
        <path d="M816.8 0L596.2 0L788.8 135Z" fill="#007fe0" stroke="#007fe0"></path>
        <path d="M1254.4 592L1112.9 475L1057.9 570Z" fill="#0089e7" stroke="#0089e7"></path>
        <path d="M1112.9 475L1277.4 307L1053.9 312Z" fill="#0089e7" stroke="#0089e7"></path>
        <path d="M1053.9 312L1127.9 145L956.3 120Z" fill="#00aeff" stroke="#00aeff"></path>
        <path d="M430.7 127L289.1 179L321.1 281Z" fill="#0092ed" stroke="#0092ed"></path>
        <path d="M321.1 281L161.6 424L345.1 484Z" fill="#0097f0" stroke="#0097f0"></path>
        <path d="M282.1 0L289.1 179L430.7 127Z" fill="#0097f0" stroke="#0097f0"></path>
        <path d="M1104.9 780L1254.4 592L1057.9 570Z" fill="#0092ed" stroke="#0092ed"></path>
        <path d="M1277.4 307L1127.9 145L1053.9 312Z" fill="#00a9fc" stroke="#00a9fc"></path>
        <path d="M956.3 120L957.3 0L816.8 0Z" fill="#00a0f6" stroke="#00a0f6"></path>
        <path d="M904.3 900L1098.9 900L966.3 778Z" fill="#0084e3" stroke="#0084e3"></path>
        <path d="M1104.9 780L1269.4 763L1254.4 592Z" fill="#0097f0" stroke="#0097f0"></path>
        <path d="M596.2 0L497.7 0L584.2 121Z" fill="#00a5f9" stroke="#00a5f9"></path>
        <path d="M344.1 776L325.1 900L475.7 900Z" fill="#007fe0" stroke="#007fe0"></path>
        <path d="M164.6 611L344.1 776L340.1 569Z" fill="#008dea" stroke="#008dea"></path>
        <path d="M115.6 328L161.6 424L321.1 281Z" fill="#0089e7" stroke="#0089e7"></path>
        <path d="M1060.9 0L957.3 0L956.3 120Z" fill="#00a5f9" stroke="#00a5f9"></path>
        <path d="M161.6 424L164.6 611L345.1 484Z" fill="#0089e7" stroke="#0089e7"></path>
        <path d="M1236.4 467L1277.4 307L1112.9 475Z" fill="#00aeff" stroke="#00aeff"></path>
        <path d="M1400 425L1277.4 307L1236.4 467Z" fill="#009cf3" stroke="#009cf3"></path>
        <path d="M0 726L151.6 731L164.6 611Z" fill="#0089e7" stroke="#0089e7"></path>
        <path d="M164.6 611L151.6 731L344.1 776Z" fill="#0092ed" stroke="#0092ed"></path>
        <path d="M1266.4 900L1269.4 763L1104.9 780Z" fill="#00a0f6" stroke="#00a0f6"></path>
        <path d="M1254.4 592L1400 564L1236.4 467Z" fill="#0089e7" stroke="#0089e7"></path>
        <path d="M1227.4 0L1060.9 0L1127.9 145Z" fill="#00a0f6" stroke="#00a0f6"></path>
        <path d="M1127.9 145L1060.9 0L956.3 120Z" fill="#00a9fc" stroke="#00a9fc"></path>
        <path d="M289.1 179L115.6 328L321.1 281Z" fill="#0089e7" stroke="#0089e7"></path>
        <path d="M161.6 424L0 588L164.6 611Z" fill="#00a5f9" stroke="#00a5f9"></path>
        <path d="M497.7 0L282.1 0L430.7 127Z" fill="#00aeff" stroke="#00aeff"></path>
        <path d="M289.1 179L134.6 122L115.6 328Z" fill="#00a9fc" stroke="#00a9fc"></path>
        <path d="M1277.4 307L1276.4 145L1127.9 145Z" fill="#0084e3" stroke="#0084e3"></path>
        <path d="M1098.9 900L1266.4 900L1104.9 780Z" fill="#0092ed" stroke="#0092ed"></path>
        <path d="M1400 732L1254.4 592L1269.4 763Z" fill="#0097f0" stroke="#0097f0"></path>
        <path d="M1400 732L1400 564L1254.4 592Z" fill="#00aeff" stroke="#00aeff"></path>
        <path d="M1277.4 307L1400 271L1276.4 145Z" fill="#00a5f9" stroke="#00a5f9"></path>
        <path d="M1400 564L1400 425L1236.4 467Z" fill="#009cf3" stroke="#009cf3"></path>
        <path d="M282.1 0L134.6 122L289.1 179Z" fill="#0089e7" stroke="#0089e7"></path>
        <path d="M0 726L136.6 900L151.6 731Z" fill="#00a0f6" stroke="#00a0f6"></path>
        <path d="M151.6 731L136.6 900L325.1 900Z" fill="#009cf3" stroke="#009cf3"></path>
        <path d="M0 312L0 442L115.6 328Z" fill="#0092ed" stroke="#0092ed"></path>
        <path d="M115.6 328L0 442L161.6 424Z" fill="#00a9fc" stroke="#00a9fc"></path>
        <path d="M1400 0L1227.4 0L1276.4 145Z" fill="#0097f0" stroke="#0097f0"></path>
        <path d="M1276.4 145L1227.4 0L1127.9 145Z" fill="#00a9fc" stroke="#00a9fc"></path>
        <path d="M0 442L0 588L161.6 424Z" fill="#0084e3" stroke="#0084e3"></path>
        <path d="M1400 900L1400 732L1269.4 763Z" fill="#0084e3" stroke="#0084e3"></path>
        <path d="M1400 425L1400 271L1277.4 307Z" fill="#00a0f6" stroke="#00a0f6"></path>
        <path d="M0 141L0 312L115.6 328Z" fill="#008dea" stroke="#008dea"></path>
        <path d="M282.1 0L163.6 0L134.6 122Z" fill="#0089e7" stroke="#0089e7"></path>
        <path d="M134.6 122L0 141L115.6 328Z" fill="#0089e7" stroke="#0089e7"></path>
        <path d="M0 588L0 726L164.6 611Z" fill="#008dea" stroke="#008dea"></path>
        <path d="M1400 271L1400 172L1276.4 145Z" fill="#0097f0" stroke="#0097f0"></path>
        <path d="M1266.4 900L1400 900L1269.4 763Z" fill="#00a9fc" stroke="#00a9fc"></path>
        <path d="M0 0L0 141L134.6 122Z" fill="#0089e7" stroke="#0089e7"></path>
        <path d="M0 726L0 900L136.6 900Z" fill="#0092ed" stroke="#0092ed"></path>
        <path d="M1400 172L1400 0L1276.4 145Z" fill="#00a5f9" stroke="#00a5f9"></path>
        <path d="M163.6 0L0 0L134.6 122Z" fill="#00aeff" stroke="#00aeff"></path>
    </g>
</svg>